<svg xmlns="http://www.w3.org/2000/svg" viewBox="0 0 194.62 157.1"><title>Asset 2</title><g id="Layer_2" data-name="Layer 2"><g id="Layer_1-2" data-name="Layer 1"><path d="M45.38,117.18c6.11,10.4,12,21,24.35,25.59-1.67-1.35-3.43-2.6-5-4.06-8.25-7.66-15-16.39-19.07-27-.4-1.06-2.5-2-3.88-2.08-10.07-.79-20.07-2-29.54-5.63A28,28,0,0,1,3.7,98.83c-5.52-5-4.85-12.35,1.91-15.32,6.61-2.91,13.81-4.6,20.87-6.34,4.5-1.1,9.22-1.33,13.4-1.9,2.47-10.58,3.93-21.49,7.68-31.54C51.44,33.31,59.87,25.57,67.92,18A63,63,0,0,1,96.27,2.4,81.41,81.41,0,0,1,128.73,1C162,6.26,193.52,39.26,192.66,79c.42-5.37.83-10.73,1.32-17a8.26,8.26,0,0,1,.64,1.87c-.12,15-1.05,29.94-6,44.33-5.73,16.61-16.68,28.76-32,36.75-16.6,8.63-34.11,14.6-53.15,11.1-13.9-2.56-27.56-6.51-39.89-13.8C54,136.62,49.28,127.17,45.38,117.18Zm69,32.61c6.29-.77,12.62-1.33,18.85-2.4a68.9,68.9,0,0,0,11.38-3.24c40-14.34,50.34-54.12,43.06-84.56-4.18-17.47-14.27-32-28.93-42.61C136.12.6,111.55-2.07,85.91,8.84,71.42,15,61.33,26.63,52.7,39.32c-3.08,4.53-4.81,10.11-6.49,15.42-1.33,4.19-1.65,8.69-2.39,13.06-.52,3.12.06,7.38-1.77,9.07-2.08,1.93-6.31,1.47-9.56,2.26-7.9,1.9-16,3.35-23.6,6-7,2.49-7.49,8.91-1.26,13.14a28.3,28.3,0,0,0,10.1,4.42c8.68,1.69,17.5,2.66,26.24,4,1.38.22,3.7.91,3.84,1.69,1.54,8.6,7.48,14.62,12.43,21.07A40.8,40.8,0,0,0,81.4,144.4,133.89,133.89,0,0,0,114.35,149.79ZM94.9,151c11.09,4,20.07,4.67,27.51,2.1Z"/><path d="M56.45,98.61c-9-.49-17.49-.77-25.94-1.52-3.14-.28-6.23-1.56-9.25-2.63-.81-.29-1.3-1.49-1.93-2.27a9.61,9.61,0,0,1,2.46-1.43C32.37,88.19,43,85.7,53.56,83.17a9.72,9.72,0,0,0,1.54-.63C52.89,63,62,48.11,74,34.47c6.37-7.24,15.43-9.77,24.24-12.54C114,17,129.49,16.35,144.66,24.12,162,33,172.06,46.56,172.83,66.66c.5,13.11-.36,25.93-5.43,38.06-7.51,18-21.79,27.56-40.45,31.47a67.32,67.32,0,0,1-39.51-3.29C71.48,126.52,60.61,115.23,56.45,98.61ZM59.67,96a29.42,29.42,0,0,0,.78,4.75c3.09,9.08,8.18,16.88,16.15,22.34,19.07,13.05,39.53,14.91,60.83,6.4,12.73-5.09,22.29-13.84,27.71-26.7a75.27,75.27,0,0,0,5.25-36.95c-.84-8.72-3-17.42-8.88-24.31C147.57,25.1,130,17.82,108.42,22.15,97.94,24.26,87,26.34,79,33.67c-13.53,12.46-22.52,27.65-21.53,47,.12,2.37-.65,3.51-2.78,4.2-5,1.62-9.93,3.48-15,5C36,91,32.16,91.69,28.38,92.58,38.62,96.77,49.35,95.18,59.67,96Z"/><path d="M71.93,91.33c.12-2.32.32-4,.27-5.7-.21-7.06-.52-14.12-.7-21.18a8,8,0,0,1,1.15-4.17c1.82,2.84,1.88,6,2.06,9.18s.46,6.45.72,9.67.55,6.62.83,9.93c6.9-1,11.51-5,12.89-11,1.43-6.16-1.29-14.39-5.84-17.51-3.69-2.51-7.79-1.71-11.85-1.42-1.69.13-3.41,0-5.69,0,5.68-4.66,16.08-4.49,20.87-.16,8.43,7.61,8.45,21.84.09,29.54-3.48,3.21-7.82,4-12.24,4.43C73.52,93.08,72.42,91.67,71.93,91.33Z"/><path d="M130.49,70.31a46.19,46.19,0,0,1-5.09-.84c-.62-.17-1.05-1.06-1.56-1.62.61-.45,1.17-1.2,1.84-1.3a45.36,45.36,0,0,1,5-.28c1.18-9.26,2.33-18.33,3.49-27.4l1.39.16c-.47,8.72-.94,17.44-1.43,26.51l5.91-1.18.65,1c-1.34,1-2.53,2.41-4,3a4,4,0,0,0-2.87,4.3c0,5.87-.41,11.77,0,17.6.23,3.07,1.88,6,2.93,9.16-2.54,1.17-4.7.34-5.31-3.46a113.56,113.56,0,0,1-.92-13.57C130.38,78.45,130.49,74.52,130.49,70.31Z"/><path d="M97,71.52a8.11,8.11,0,0,1,10.83.75,8.91,8.91,0,0,1,1.32,11.49,8.38,8.38,0,0,1-9.53,3.16c-2.91-1.13-4.3-5.08-2.9-9a45.45,45.45,0,0,1,2.94-5.6Zm7.78,3.14a5.87,5.87,0,0,0-5.61,6.16c.06,2.4,1.21,3.83,3.71,3.78,2.72,0,5.15-2.81,5.09-5.85C108,76.67,107.69,74.58,104.8,74.66Z"/><path d="M147.83,86.82c.37-5,.57-10,1.17-14.9.69-5.68,1.73-11.32,2.66-17a7.55,7.55,0,0,1,.82-2.72,16.66,16.66,0,0,1,2.21-2.41c.39,1.1,1.27,2.29,1.1,3.29-1.4,8-3,16-4.55,23.92-.64,3.33-1.3,6.66-2,10Z"/><path d="M119.29,69.82a8.59,8.59,0,0,1,.76,2.42c0,5,.06,10-.11,15,0,.82-1,1.61-1.55,2.42-.5-.58-1.44-1.17-1.43-1.74.06-6,.28-12,.46-18Z"/><path d="M125.68,57.58a79,79,0,0,1-6.11,5.21c-.45.31-1.74-.38-2.48-.86-.16-.11.48-1.29.59-2,.15-.9.13-1.83.19-2.74.13-2.08,1.15-3.7,3.28-3.18C122.53,54.35,123.62,55.88,125.68,57.58Z"/><path d="M146.92,101.84c-.81-1.31-2.58-3.36-2.25-3.79,1.16-1.49,3-2.42,4.65-3.57.76,1.17,2.31,2.51,2.11,3.47-.32,1.48-1.85,2.69-2.86,4Z"/></g></g></svg>