<svg id="Layer_1" data-name="Layer 1" xmlns="http://www.w3.org/2000/svg" viewBox="0 0 235.65 266.03"><title>journal-with-pen</title><path d="M1018.88,636.78c-6.87.93-13.77,1.67-20.59,2.83q-36.66,6.24-73.27,12.74c-8.21,1.46-16.33,3.35-24.49,5l.24,1.55,30.39-3.72c-12.62,3.84-24.69,8-37.65,8.1-2.6,0-5.08-.15-4-3.86-2.3-1-4.18-1.57-3.36-4.9.51-2.09-.63-4.68-1.38-6.93-.21-.65-1.6-1.26-2.48-1.31-3.65-.19-7.72,0-9.09-4.2-1.45-4.43,1.92-7.26,5-9.4,2.65-1.81,3.08-3.62,2.36-6.51-1.24-5-2.09-10-3.22-15.6L873.51,613c.08-5,6.69-4.11,8-8.2-3.84-.43-8.1,1.53-9.35,4.35-2.69,6.08,3.19,7.05,6.59,9.68-4.19,1.11-7.3-.31-9-3.71-1.61-3.24-.92-7.4,2.43-9.14,3.81-2,4.17-4.47,2.68-7.79a6.27,6.27,0,0,0-2.58-2.89c-6-2.93-7-8.52-2.37-13.39a5,5,0,0,0,1.1-3.39,19.23,19.23,0,0,0-1.13-5.62,6.76,6.76,0,0,0-2.48-3.35c-4.6-2.73-5.81-7.56-2.71-11.9,1.52-2.12,1.71-10.78,0-12.45-.83-.8-2.38-.88-3.62-1.24-6.11-1.78-7.73-6.92-2.88-10.94,3.31-2.74,4-5.46,3.09-9.21-.44-1.86-.41-3.9-1.17-5.6a4.47,4.47,0,0,0-3.1-2.39c-3.55,0-6.11-1.3-7.38-4.59s-.45-7,2.37-8.31c7-3.14,4.84-8.12,3.77-13.15l-.49-2.28c-4.9-.92-11.68.34-12.4-6.83-.64-6.24,4.6-8.92,10-11.24-.28-2.73-.45-5.58-.91-8.39s.35-4.55,3.44-5c7.08-1.07,14.13-2.42,21.24-3.35,2.63-.34,3.31-1.29,3.28-3.86-.11-11.76,0-23.52.05-35.28,0-4.7.34-5.28,5.07-5.36,20.26-.36,40.52-.47,60.78-.76,17.38-.24,34.75-.82,52.13-.84,12.58,0,25.15.67,37.73,1,1.19,0,2.39-.54,4.61-1.09,0,4.19,0,8.19,0,12.19.46,54,.8,108,1.54,162,.1,7.59,2.08,15.16,3.28,22.72,1.48,9.34,3,18.67,4.59,28,.32,2,.12,2.8-2.48,2.94-6.81.39-13.57,1.5-20.37,2.19a33.2,33.2,0,0,1-5.16-.24l2.4-2.38a30.57,30.57,0,0,1,5.48-1.15c5.71-.15,11.43-.06,18-.06-1.46-10.57-2.84-20.55-4.23-30.53l-.93,0c0,2.23.14,4.48,0,6.69-.2,2.57-.68,5.11-1,7.67l-1,1a29.28,29.28,0,0,1-.49-3.83c-.17-42.94-.21-85.88-.5-128.83-.16-23.87-.72-47.73-1.12-71.6,0-1.25-.21-2.5-.25-3L881.7,412.85c0,2.39,0,4.9,0,7.4s.24,5.28.29,7.92c.13,7.1.36,7.33,7.52,7.06a6.79,6.79,0,0,0,1-.18c2.11-4.67,4.86-6.58,8.56-5.82a4.8,4.8,0,0,1,4,4.84c.22,3.31-.89,5.94-4.1,7.27s-5.3,0-8.69-5l-7.6.68c0,6.5,0,12.71,0,18.91,0,9.72,0,19.43.15,29.14,0,1.14.84,3,1.65,3.24a44.14,44.14,0,0,0,7.21.93c1.48-1.87,2.39-3.95,4-4.79,2.85-1.52,6.64.13,8,2.88a7,7,0,0,1-2.57,8.54c-2.34,1.29-5,.14-7.41-2.69-.79-.92-2.4-1.3-3.7-1.57-1-.21-2.17.36-3.21.21-3.71-.54-4.33,1.28-4.24,4.54.4,13.54.78,27.08.7,40.62,0,4.29.26,7.3,5.35,7.43.16,0,.31.49.6,1l-5.13.33v24.5l4.35.89c2-2.15,3.3-4.23,5.18-5.55,4.46-3.13,7.74-1.86,9,3.41.45,1.92.68,4.33-.11,6a9.86,9.86,0,0,1-4.72,4.71,5.39,5.39,0,0,1-7.05-2.79c-1.41-3.19-3.61-3.21-6.4-2.85v27.26c4.68-.87,4.67-.87,7.07-4.29a10.85,10.85,0,0,1,.91-1.12c2.65-2.81,5.85-2.95,8.55-.39,2.94,2.79,2.77,7.91-.37,11-2.39,2.32-6.22,2.34-8.07-.83-2.2-3.76-5.16-2.75-8.51-3-.3,6.91-.59,13.53-.89,20.38,2.77-.24,5-.58,7.28-.6q55.59-.43,111.19-.78a18.9,18.9,0,0,1,3.45.6l1.83,1.69c.15,2.48,1.95,1.84,3.45,1.87q13.63.32,27.26.68A131.23,131.23,0,0,1,1019,628c-27.33.38-54.67.65-82,1-15.59.19-31.18.35-46.63-2.34-2.19-.38-4.41-.57-6.72-.86-.16,2.76.65,3.77,3.12,3.51a27.53,27.53,0,0,1,6.08.2c6.21.75,6.83,1.71,5.39,7.78a16.73,16.73,0,0,0-.13,1.68c1.77-1.21,3.93-2,4-2.89.16-2.07-.7-4.23-1.15-6.36,2.56,1,4.36,2.92,4.1,6.09s-2.62,4.75-5.36,5.6c-4.72,1.45-7-1.67-8.74-5.34l-5.29,1.57c.92,4.86,1.83,9.32,2.59,13.8s1.06,4.74,5.46,3.83c10.9-2.27,21.75-4.85,32.7-6.88,20.25-3.75,40.53-7.37,60.86-10.72,9.79-1.62,19.71-2.5,29.57-3.71Zm-163-168.06c7.39-.33,7.39-.33,8.42,2.21-5.66-1.57-10.67,0-15.23,3.14-2.58,1.78-4.4,4.25-3,7.67,1.13,2.81,5.36,4.35,9,3.33l-1.42-9.24L847,480c.72-1.49,1-3.05,1.92-3.81,3.71-3.06,8-4.81,12.92-4.3a14,14,0,0,1,2.57,1.06c1.23.4,2.6,1.14,3.71.88.73-.17,1.67-1.93,1.52-2.82a5.93,5.93,0,0,0-2.11-3.39c-.87-.69-2.3-.67-4-1.09,3.06-1.19,5.55-.65,6.67,1.65a8,8,0,0,1,.15,6c-1,2.35-3.5,2.36-6,1.9s-4.8-.46-7.77-.71c1.42,8.18,2.69,15.54,3.93,22.68,4.48,1.33,11.27-3.57,12,5.71.92-1.36,1.79-2.64,1.61-3.74s-1.4-2.14-2.17-3.2l1-.66c1,1.52,2.82,3.1,2.71,4.52a9.35,9.35,0,0,1-2.89,5.67c-.87.8-3.2.19-4.81-.09-1.9-.33-3.73-1-6.17-1.67,1.38,8.49,2.57,15.83,3.77,23.17,11.21-1.74,11.74-1.66,12.59,1.81-1.23-.42-2.66-1.46-3.51-1.11A129,129,0,0,0,861,535c-.86.49-1.16,3-.78,4.32s2,2,3.06,2.92l1-.85c-.35-.62-.61-1.68-1.06-1.77-2.83-.58-1.47-2.28-.54-3,4.68-3.42,10.16-3.84,16.57-4.36l-2.6,3.59c3.64.41,4.75-1,4.69-4-.16-8.63-.27-17.26-.39-25.89-.16-11.38-.35-22.77-.47-34.15-.06-6.05,0-12.11,0-17.63-6.79,1.26-12.69,2.63-18.66,3.4C852.79,458.77,851.86,460.31,855.89,468.72Zm25.4,69.07c-2.34-.21-5,.34-6-.69-2.77-3-5.24-1.63-8.16-.59.94,5.54,1.85,10.93,2.75,16.24l11.37-1.8Zm.19,39.65c0-4.14.25-8.21-.12-12.22-.18-1.94-1.08-4.35-2.51-5.44-1.12-.86-3.57-.17-5.37.14-.74.13-2,1.19-1.91,1.65.91,5.84,2,11.65,3.11,17.56Zm1.41,67.11,1.29-1.47-2.55-4-1.13-.31c4-4.93,10.48-4.09,16.27-5.49-4.45-3-14-1.7-16.91,2-1.41,1.8-2.59,4.44-2.4,6.56C877.55,642.9,881,643.66,882.89,644.55Zm-1.29-59.84-1.13-1.14c-1.44,1-4.18,2.09-4.1,2.92.53,5.26,1.68,10.45,2.63,15.67l1.56,0C882.45,596.47,880.94,590.49,881.6,584.71Zm-13-17.76c-1.65-5.84-1.13-7,4.58-9.39a19.21,19.21,0,0,1,5.84-1.42c2.43-.2,2.78-1.15,1.79-3.36-5,1.22-10.07,1.64-13.66,5.76C864.4,561.73,864.8,564.52,868.63,567Zm34-132.36c-2.37-1.8-4.37-3.87-4.84-3.57a8.89,8.89,0,0,0-3.63,4.48c-.24.78,2.27,3.44,3,3.24C898.79,438.26,900.12,436.61,902.63,434.59Zm-29.06,158a12,12,0,0,0-.24-2.49c-1.46-4-1.11-5,2.65-6.84,1.39-.67,2.9-1.1,4.28-1.78.56-.28.92-1,1.37-1.43l-.66-1c-3,1.29-6.16,2.2-8.79,4C868.31,585.61,868.9,590.11,873.57,592.55ZM852.8,506.82c-1.38,4.29,1.09,6.76,6.53,6.46l-1-7.92-4.65,3.78Zm47.29,66.3c-3.88-2.19-3.88-2.19-6.55,2.57C897,578.24,898.89,577.56,900.09,573.12Zm-45.85-68.21c5-1.3,10.34-2.71,16-4.18C865.1,499.25,857,501.61,854.24,504.91Zm46.3,97.68-.75-2.17-4.58,1.05,1,3.55Zm1.54-113.33-1.44-1.2-4.38,3.74.24,1.07c1.14.11,2.71.72,3.32.21C900.88,492.17,901.35,490.57,902.08,489.26Z" transform="translate(-842.87 -406.46)"/><path d="M1072.18,460.49c.43,1.81,1.19,3.61,1.23,5.43.22,12.95.17,25.9.44,38.85q.87,42.24,2,84.46.59,22.65,1.48,45.28c.09,2.35,1.24,4.68,1.2,7-.11,7.59-.57,15.17-.82,22.76-.09,2.6-1.46,3.48-3.85,3.67-6.15.51-9.12-2.67-8.95-8.71.16-5.61-.4-11.24-.77-16.85-1-15.06-2.5-30.09-3-45.16-1-33.07-1.54-66.15-2.22-99.22-.2-9.71-.21-19.43-.35-29.14a113.1,113.1,0,0,1,4.57-31.86c.71-2.59,1-5.29,2.34-7.94q3.39,15.75,6.77,31.51c-1.41-4.27-3-8.48-4.14-12.83-.75-2.89-1.93-4.38-5.45-3.43-.51,5.55-1,11.25-1.55,16.94-.17,1.84.13,3.75,2.3,3.63a8.5,8.5,0,0,0,4.39-2.18c.67-.55.65-1.95.89-2.79l2.31,4,1-.35Zm-12.1,6.63c0,1.74-.06,3.39,0,5q1.32,31.62,2.68,63.25c.8,18.92,1.73,37.84,2.38,56.78.47,13.76.66,27.54.78,41.32,0,4.19,2.8,6.88,6.89,5.68a3.72,3.72,0,0,0,2.13-2.8c-.78-11.49-1.77-23-2.71-34.44l-.14,0v30.43c-3.9-55.23-.88-110.64-4.43-165.82Zm6,173.94c.13,2.87.26,5.82.41,8.94l7.35-.44c-1.06,3.39-3.93,2.91-6.3,3.87a18.35,18.35,0,0,0,7.14.55c.95-.12,2.5-1.31,2.52-2.05.13-3.95-.14-7.91-.26-11.45Zm5.65-65.59V465.75h-1C1068.77,502.34,1071.05,538.9,1071.68,575.47Zm4,89.83c.22-3.1.45-6.24.67-9.31h-8.1C1067.19,664.41,1069.13,666.82,1075.64,665.3Z" transform="translate(-842.87 -406.46)"/><path d="M1048.94,642.89c.13-1.24.22-2.15.32-3.06l.64-.23c.58,1.22,1.16,2.44,1.92,4-8.72.84-16.88,1.72-25,2.39-20.52,1.68-40.37,6.77-60.17,12-13,3.41-25.74,7.58-38.68,11.1a91,91,0,0,1-32.75,3c-3.7-.35-3.61-3.39-5.37-5.08,1-.72,1.85-1.93,2.9-2.1,7.32-1.22,14.78-1.77,22-3.41,14.13-3.21,28-7.32,42.19-10.45,15.3-3.39,30.68-6.55,46.16-8.94,13.83-2.14,27.83-3.09,41.76-4.58a15.42,15.42,0,0,0,2-.48l2-.45.11,1q-15.57,2.36-31.12,4.71c-23.67,3.61-47.2,7.88-70.32,14.23-16.85,4.63-33.61,9.66-51.12,11.33v1c4,0,8,.58,11.82-.11q16.75-3.06,33.35-7c21.89-5.2,43.64-11,65.6-15.93A140.34,140.34,0,0,1,1048.94,642.89Z" transform="translate(-842.87 -406.46)"/><path d="M1018.88,636.78l-2-2.81,7.24-.15-2.4,2.38Z" transform="translate(-842.87 -406.46)"/><path d="M1034.53,623.23a16.39,16.39,0,0,1-3.71,1c-7.1.25-14.21.4-21.32.49a9.88,9.88,0,0,1-2.67-.74L1005,622.3a8.31,8.31,0,0,1,2.3-.66q12.9,0,25.8.17a10.11,10.11,0,0,1,2.34.61Z" transform="translate(-842.87 -406.46)"/><path d="M1034.53,623.23l.91-.81,4.13-.58c.23-1.45.47-2.92.71-4.39l1-1L1043,627l-1,.17c-.34-2.17-.69-4.34-1.11-7C1040.08,624.84,1037.39,624.25,1034.53,623.23Z" transform="translate(-842.87 -406.46)"/><path d="M884.7,461.43c2.9-1.23,5.49-1.79,7.42-4.65,1.83-2.71,8-2,10,.52a6.34,6.34,0,0,1-1.28,8.64,6.43,6.43,0,0,1-9.37-1.84c-1.09-2-2.41-2.35-4.31-2.31A14.59,14.59,0,0,1,884.7,461.43Zm9,.13-.41,1c1.51.67,3.09,2,4.51,1.81,1.1-.12,2-2.05,3-3.18a15,15,0,0,0-3.95-1C895.78,460.25,894.74,461.09,893.69,461.56Z" transform="translate(-842.87 -406.46)"/><path d="M890.72,544.46c0-4,2-6.26,5.61-6.32,4.21-.08,6.7,2.18,6.73,6.1s-2.71,6.93-6.22,6.82A6.39,6.39,0,0,1,890.72,544.46Zm4-2.21c-.34,1.8-1.14,3.36-.67,4.22a4.59,4.59,0,0,0,3.4,1.91c1,0,2.06-1.23,3-1.89Z" transform="translate(-842.87 -406.46)"/><path d="M886.84,519.09c3.26-.24,4.8-2.57,6.69-5.06s5.88-2.21,7.94,0c2.32,2.5,2,7.39-.59,9.74-2.24,2-4.62,1.4-7.56-1.11C891.48,521.11,889,520.26,886.84,519.09Zm6.72,0c1.54,2.55,2.66,5.12,5.59,3.52,1.06-.58,2.17-3.44,1.7-4C898.56,515.74,896.24,518,893.56,519.13Z" transform="translate(-842.87 -406.46)"/></svg>