<svg xmlns="http://www.w3.org/2000/svg" viewBox="0 0 227.08 245.27"><title>Asset 3</title><g id="Layer_2" data-name="Layer 2"><g id="Layer_1-2" data-name="Layer 1"><path d="M22.35,225.21c-3.54.06-6.6-.41-5.51-5.35l-4.93-.59v-4.43C8.34,214,7,211.63,8,208c.2-.81.21-1.67.41-2.48.78-3.17.89-5.88-2.36-8.16-1.84-1.29-3.13-3.63-4.2-5.74-4.3-8.49-.67-16.49,8.59-19,2.09-.56,3.58-1.09,4-3.63s-.36-3.93-2.16-5.77c-2.94-3-5.93-6.46-7.47-10.29-3.58-9,1.77-17,11.37-18.15,1.42-.17,2.85-.18,4.62-.29l5.47-29.85c-5.37-.23-8,1.54-10,6.2-.7-3.21.14-5.21,3.06-7.32,5.14-3.69,15-3.71,20.12,0a5.58,5.58,0,0,1,1.8,1.71,16.75,16.75,0,0,1,.92,3.19c-1.19,0-2.53.31-3.53-.13-2.82-1.25-5.49-2.82-8.85-4.6-.9,4.43-1.73,8.21-2.42,12-.89,5-1.75,9.92-2.46,14.9-.22,1.54-.38,4.3.21,4.54,2.08.84,4.71,1.53,6.75,1,4.11-1.17,7-1,9.37,2,2.19,2.71,2.25,7.34.13,10.45-2.45,3.6-5.73,4.89-9.91,3.54,4.68-1.17,8.35-3,8.9-8.09-6.69-5.62-14.71-6.12-22.68-6.07-9.37,0-13.56,7.46-9,15.6a90.11,90.11,0,0,0,5.94,8.42l1-.23c1.15-5.87,2.3-11.74,3.46-17.68-6.43-.17-9.15,3.05-7.47,8.31-2.45-1.57-3.14-3.31-1.67-5.75A15,15,0,0,1,14,142.15c4.39-3.08,13.85-3,18.16.26,1.55,1.15,2.57,3,3.83,4.55l-1.12,1.33c-1.84-1-3.64-2.11-5.52-3s-4-1.75-6.44-2.8c-1.79,10.22-3.43,19.61-5.23,29.88,4,.47,7.67,1.08,11.34,1.26,3.52.18,6.32,1.34,8.11,4.42a8,8,0,0,1-.38,9.14c-2,2.9-4.7,4.65-8.22,4-1.24-.24-2.19-2-3.28-3a31.42,31.42,0,0,0,3.37-.48c1.66-.39,3.58-.54,4.86-1.5,2-1.5,2.27-3.66-.14-5.23-6.58-4.29-13.5-7.42-21.64-5.29C3.92,177.65,1,185,5.16,191.89c1,1.7,2.44,3.18,4.31,5.58.95-5.74,1.73-10.5,2.52-15.3-4.36,0-5.44,1.78-3.81,5.88-2.43-.52-3.2-2-2.08-4.45,1.71-3.63,5-5.1,8.67-5.64,5.84-.86,11.26.29,15.68,4.43.75.71.76,2.21,1.12,3.35a14.36,14.36,0,0,1-3.19-.51c-3.3-1.33-6.48-3-9.83-4.14a3.28,3.28,0,0,0-2.8,1.52c-2.07,9-3.92,18-5.93,27.49,2.45-.3,4.42-.48,6.36-.8a182.6,182.6,0,0,1,50.93-.88c18.92,2.18,37.75,5.14,56.62,7.73a166.39,166.39,0,0,0,44.47.56c5.81-.76,6-1,6.77-6.08,4.78-31.26,9.13-62.6,14.61-93.74,5.34-30.43,11.84-60.65,17.86-91,.61-3.08,1.37-6.13,2.06-9.19l1,.18c-.36,3.09-.73,6.17-1.11,9.37l4.26.4v9.09h5.92c-.31,3-.57,5.54-.85,8.25l3.25,1.1c0,.18-.05.36-.08.54l-2.69.38q-16.59,93.8-33.07,187c14.44-61.35,24.28-123.55,35-185.79l6,.56C217.72,114,204.69,179.29,192,244.66c4.42-32.68,10.86-65,16.46-97.49s11.33-65.1,17-97.81c-2.25-.73-3.37-.47-3.82,2.31-6.42,39.61-12.68,79.26-19.6,118.79-3.87,22.14-9,44.07-13.36,66.13-.61,3-1.86,4.1-5,3.84q-30.43-2.6-60.88-4.9c-11.84-.89-23.69-1.6-35.54-2.27-18.68-1.06-37.37-1.91-56-3.16-2.07-.13-4.36,1.78-6.27-.37-1-1.18-2.05-2.4-3.07-3.6ZM209,27.86c-2.16,13-4.23,25.68-6.36,38.31Q194.85,112,187,157.91c-3.08,17.82-6.49,35.57-9.48,53.4-.65,3.92-2.94,5.27-6.11,6.53-12.51,5-25.4,4.33-38.3,2.62-20.89-2.77-41.7-6.21-62.63-8.64a198.63,198.63,0,0,0-52.73,1.25c-3,.46-4.4,1.82-4.24,4.93,8.33-.32,16.45-.86,24.58-.9,27.89-.14,55.36,5,83.08,7,18,1.26,36.13,1.71,54.21,2.36.85,0,2.36-1.4,2.55-2.34,2.34-11.86,4.45-23.75,6.7-35.62,2.32-12.24,4.81-24.44,7.08-36.69,5.48-29.56,11-59.11,16.26-88.7,2.06-11.52,3.6-23.13,5.42-35ZM18.22,223.1l166,9.16c11.39-65.09,22.77-130.1,34.22-195.51l-4.92.68c-1.18,7.92-2.23,15.62-3.48,23.29-4,24.47-8.12,48.91-12.11,73.38-3.37,20.67-6.3,41.42-10,62-2,10.87-5.27,21.51-8.1,32.79-6.9,0-13.85.44-20.73-.07-28.56-2.13-57.08-4.76-85.65-6.78-17.09-1.21-34.24-1.61-51.37-2.47C19.15,219.46,18.1,220.67,18.22,223.1Zm168.31,12.17L68.8,228.47c0,.25,0,.5,0,.76l117.61,8.45C186.42,236.94,186.48,236,186.53,235.27Zm-135.32-7v-.58c-8.36-.68-16.72-1.41-25.09-1.92-.82-.05-1.72,1.24-2.58,1.91l.63.59Z"/><path d="M13.05,119.34C5.78,109,12.86,97.05,27.87,94.53c.21-.83.41-1.75.67-2.65,1.13-4,1.54-7.35-3-10.33-4.37-2.86-6.48-7.89-6.87-13.3-.58-8.21,3.64-14,12.18-14.74,4.63-.41,5.14-2.54,5.33-6,.05-1.07.24-2.12.39-3.36-7.21-2.6-11.83-7.41-13.13-15.14-1.52-9,4.77-17.67,13.37-17.64,4.09,0,7.37,0,7.38-6,.67,1.1,1,1.35,1,1.61,0,2.51-1.77,5.56,2.44,6.7a43.36,43.36,0,0,1,7,2.81c1.53.72,3.44,1.4,4.28,2.69,2.32,3.52-.61,10.92-4.66,12.1-2.63.76-4.52-.33-5.46-3.14l4.77.35.16-.76-9.6-6.86c-2,11-3.86,21.42-5.89,32.71a64.51,64.51,0,0,0,8.53.3,7,7,0,0,1,7.55,4.19A8.09,8.09,0,0,1,52,68.29l-1.61-1.53c2.17-4.63,1.55-6.53-3.4-8.7a24.63,24.63,0,0,0-18.55-.86c-5.62,2-8.74,8.25-6.29,13.72,1.71,3.78,4.6,7,7,10.52L30.44,81q1.74-9.73,3.47-19.5c-6.31-.63-9.78,2.81-9,8.59-2.08-3.65-1.38-7.25,2.31-9.87,6-4.27,13.24-3.3,18.91,1.33a1.65,1.65,0,0,1,.57.9c.21,1.2.33,2.41.49,3.62a17.32,17.32,0,0,1-3.42-1.11c-2.12-1.2-4.11-2.62-6.8-4.37-2.08,12.12-4,23.28-5.93,34.65,3.85.76,7.09,3.48,11.16,1.39.74-.38,2.1.22,3.08.59a6.35,6.35,0,0,1,4.3,6.08c.11,4.65-1.72,8.43-5.82,10.84-2.4,1.42-4.33,1.11-7.21-1.1,4.63.49,7.88-1,9.38-5.12.9-2.48,1.57-5.06-1.32-7.77l1.12,4.54c-5.34-6.33-12.5-7.31-19.78-6.83-8.6.55-13.92,8.71-11.82,17.09.23.92.31,1.87.46,2.81ZM30,27.16c-.81-7,2.11-10.6,8.13-10.67,7.17-.09,12.93,2.82,17.57,8.7.18-1.64.28-3.65-.65-4.42A26.87,26.87,0,0,0,39.11,14.1c-6.71-.36-11.68,4.29-12.35,11.28s4,13.46,10.6,14.34c1.07-6.44,2.13-12.88,3.19-19.28C34.2,18.89,31.85,20.33,30,27.16Z"/><path d="M207.81,17.08c-4.44.1-8.88.41-13.3.26-14.14-.48-27.64-4.46-41.2-8A203.3,203.3,0,0,0,91.67,3.17C78,3.86,64.38,4.69,50.73,5.43c-1.48.08-3,0-4.46,0l-.38-1.1c.8-.53,1.56-1.43,2.41-1.52C72.07.41,95.84-1.07,119.75,1c18.25,1.54,35.73,6.8,53.58,10.26,10.78,2.08,21.81,2.88,32.73,4.26.58.07,1.15.22,1.72.33Z"/><path d="M189,245.27c-53.95-2.81-107.89-6-161.73-10.65C32.53,232.55,180.23,241.94,189,245.27Z"/><path d="M13.05,119.34l1.5-1.61,7.7,7.82-1.18,1.2C17.69,125.15,14.45,123.38,13.05,119.34Z"/><path d="M50.39,66.76,52,68.29c-3.55,3.88-7,4-9.39.84Z"/></g></g></svg>