<svg xmlns="http://www.w3.org/2000/svg" viewBox="0 0 183.9 124.01"><title>Asset 4</title><g id="Layer_2" data-name="Layer 2"><g id="Layer_1-2" data-name="Layer 1"><path d="M106.62,119.82c7-12.15,13.88-24.33,20.93-36.43,1.16-2,.11-2.83-1.24-3.74C114.21,71.44,102.23,63,90,55.07,68.57,41.16,47,27.54,25.5,13.74a109.5,109.5,0,0,1-9.62-7.1c1.44.58,2.92,1.08,4.31,1.75q51,24.6,102,49.25c5.82,2.82,11.5,5.93,17.31,8.77a4.17,4.17,0,0,0,3.23.1c10.11-5.06,20.16-10.25,30.53-15.56-6.39-2.44-12.95-5.32-19.73-7.49C111.63,30.06,69.4,17.88,26.68,7.4Q15,4.54,3.32,1.63A3.13,3.13,0,0,1,1.19,0,36.14,36.14,0,0,1,5.37.5C22.15,4.5,39,8.11,55.66,12.66q51.12,14,102,28.88c7.2,2.1,14,5.63,21,8.46,1.37.55,2.81.92,5.3,1.72-2.39,1.11-3.84,2.15-5.43,2.47-10,2-18.82,6.75-27.55,11.87-4.21,2.47-5.47,4.85-4.94,9.83a231.77,231.77,0,0,1,.88,28c-.05,3.23-1.8,6.42-2.77,9.63-3.08-1.29-6.41-2.19-9.18-4-4.51-2.9-8.66-6.37-13.22-9.79-5.08,7.79-10.16,15.56-15.83,24.23-3.72-3.58-7.11-6.5-10.1-9.78-11-12-22.08-24-32.69-36.37C42.25,53.55,21.73,29,1.1,4.53A4.08,4.08,0,0,1,0,1.81L105.06,120.26Zm-75-104.51-.32.6c1,.67,2.07,1.38,3.15,2,31.67,18,62.58,37.24,92.05,58.72A37,37,0,0,0,132,79.38c2.73,8.88,5.47,17.83,8.22,26.78l-1.37.47c-2.81-6.93-5.62-13.86-8.62-21.24l-7.33,12.36,15.5,10.89c4,2.84,5.43,2.31,5.59-2.67.26-7.67.26-15.35.13-23-.06-3.89-.65-7.78-1-11.76l-3.76.39c-1-1.18-1.55-2.33-2.46-2.83-11.15-6.07-22.26-12.22-33.57-18C86.4,42.16,69.41,33.84,52.45,25.43,45.54,22,38.58,18.68,31.64,15.31Z"/></g></g></svg>