<svg xmlns="http://www.w3.org/2000/svg" viewBox="0 0 211.58 194.89"><title>Asset 1</title><g id="Layer_2" data-name="Layer 2"><g id="Layer_1-2" data-name="Layer 1"><path d="M.05,23.75c1.37-.31,2.13-.27,2.58-.62a48.88,48.88,0,0,0,5.18-4.44c5.51-5.7,12.07-8.35,20.1-8.79,14-.75,27.92-2.42,41.89-3.53Q110.12,3.14,150.44.18c5.25-.38,10.54,0,15.82,0,1.08,0,2.15.15,3.23.2,1.89.09,4.5-.55,5.47.44s.5,3.61.61,5.52a564,564,0,0,0,12.21,86.39,45,45,0,0,0,8.72,19.13c3.85,4.74,8.74,6.84,15.08,5.53-6.83,9.14-15.66,15.41-25.87,19.92,1.23,8.07,2.43,16,3.58,23.55l-4.14,5.59c-4.08,5.47-8.14,10.94-12.24,16.39-1.76,2.34-3.89,2.75-7,2.8-6.54.11-13,1.73-19.59,2.27-23.65,1.94-47.29,4.1-71,5.4-19.63,1.07-39.32,1-59,1.6-2.61.08-3.61-.59-3.88-3.21C11.05,177.13,9.24,162.62,8,148.06,5.91,125.27,4,102.45,2.4,79.62,1.31,64.21.79,48.75.07,33.31-.08,30,.05,26.68.05,23.75ZM21,35.57l.66-.07C23.25,46,24.39,56.59,26.43,67c5.21,26.55,10.86,53,16.21,79.55.62,3.08,1.87,4,5,3.9,33.83-.7,67.58-2.67,101.1-7.47,17.81-2.55,34.93-7.4,50.29-17.23,2.79-1.79,5.42-3.81,8.13-5.73-6-.32-10.27-2.89-13.19-7.34a45.5,45.5,0,0,1-5.56-10.83C180.08,75.57,176,48.46,173.29,21.1c-.61-6.3-1-12.62-1.51-19.26-1.68.11-3.08.18-4.47.31C158.84,3,150.39,4,141.91,4.66Q87.78,8.86,33.62,12.88C28,13.31,21.74,12.39,17,14.64S8.69,22.4,4.64,26.47a1.52,1.52,0,0,1-.26.25C2,28.2,1.88,30.37,2.12,32.94Q3.64,49.23,4.81,65.56c.9,12.3,1.51,24.62,2.53,36.91,1.67,20,3.57,39.89,5.4,59.83.72,7.81,1.53,15.61,2.32,23.63,3.37-1.54,3-4,2.65-6.57-2-16.41-4.1-32.82-6-49.25-.74-6.46-1-13-1.44-19.47h.31q5,34.29,9.94,68.58l1.75-.06c.11-1.23.56-2.55.27-3.68-5-19.37-6.86-39.16-8.12-59-.43-6.68-.71-13.37-1.06-19.89q5.82,39,11.69,78.35c2.43-1.34,3.21-2.52,2.46-5.13a91.85,91.85,0,0,1-3.19-15.46c-2.77-25.73-5.31-51.49-7.87-77.24-.25-2.5,0-5,0-7.58l-.21.07c4.53,33.53,9.06,67.07,13.62,100.88,2.31-1.11,4-1.55,3.45-4.55C31,152.58,28.56,139.25,27,125.83,24.73,107.27,23,88.65,21.46,70,20.36,57,19.82,44,19,30.92c-.2-3.25-.38-6.51-.57-9.76l-.49.1c6.14,48.9,12.29,97.8,18.51,147.37L185,161c-.55-8.1-1-15.28-1.52-22.5l-19.2,5.64.07.46,12.11-1.6.14.92c-7.38,1.39-14.72,3.17-22.16,4.08-13.43,1.63-26.9,3.18-40.4,3.94-16.15.92-32.35,1-48.53,1.4-7.07.19-14.17.11-21.19.81-2.45.25-3.26-.08-3.74-2.22-1.84-8.3-4.06-16.53-5.51-24.9Q29.16,92.88,23.78,58.64C22.56,51,21.93,43.26,21,35.57ZM183.57,162.84a5.18,5.18,0,0,0-1.45-.23c-7.75.67-15.48,1.48-23.24,2.06-19.72,1.46-39.44,3.11-59.19,4.15C78.13,170,56.55,170.47,35,171.34c-1.06,0-2.09.9-3.13,1.38l.39,1.06c1.17.08,2.35.18,3.52.23,28,1.1,55.82-1.64,83.67-3.89,14.93-1.21,29.9-1.83,44.86-2.64,3.21-.18,6.43,0,9.65,0a169.45,169.45,0,0,1-22.09,2.86c-14.6.95-29.22,1.55-43.82,2.5-25.36,1.66-50.67,4.37-76.15,3.35-2.6-.1-4,1-4.83,3.7a933.31,933.31,0,0,0,118.47-3.25c-1.13.63-1.32.83-1.53.84-23.91,1.73-47.81,3.77-71.75,5-15.19.8-30.45.51-45.69.6-3.06,0-4.29,1.31-4.44,4.25a10.92,10.92,0,0,1-1.21,3.18c4.32,0,9.21.19,14.09,0q48.53-2.12,97-4.39c11-.52,22-1.29,33-2,1.09-.07,2.58-.31,3.16-1.05C173.38,176.43,178.39,169.69,183.57,162.84Z"/><path d="M108.37,67.72l-7.92-14.91H95.68c5.85-5.19,11.59-8.73,18.75-8.6,4.82.09,9.72,6.43,10.52,12.59,1.15,8.86-6.73,17.41-15.79,17-.9,0-2.54-1-2.49-1.31A24.89,24.89,0,0,1,108.37,67.72ZM104.46,51l5.91,17.41c4.63-2,8.63-4.1,9.49-9,.7-4-1.51-7.36-4.45-9.68C111.89,46.92,108.43,49.51,104.46,51Z"/><path d="M125.63,46.69c.78-6.92,3.88-9.55,10.53-8.61,1.42.2,2.86.35,4.25.69,4.61,1.1,7.69,4.45,8,8.56a11.22,11.22,0,0,1-6.93,10.76c-4.65,1.8-9.84.78-12.29-3C127.56,52.56,126.78,49.5,125.63,46.69Zm13.47-1.61c-2.64-4.82-6-5.71-8.09-2.51-2.55,4,.58,10.91,5.24,11.62a6.67,6.67,0,0,0,7.06-4.34c1.11-3,.58-5.37-2.68-6.87Z"/><path d="M113.9,85.52a65.61,65.61,0,0,0-7.58,3,3.25,3.25,0,0,0-1,3,4.45,4.45,0,0,0,3.08,1.82c2.12.23,4.31-.22,6.44,0,3.17.26,5.8,1.59,6.82,4.89a7.24,7.24,0,0,1-2.43,8.07c-2.66,2.33-5.74,3.09-9,1.48-1.06-.53-1.64-2-2.44-3.08,1.13-.34,2.25-.7,3.4-1a6.5,6.5,0,0,1,1.07,0c2.19-.07,4.79,0,4.66-3.06S114.17,98.09,112,98c-2.69-.18-5.49-.17-8-1-3-1-3.85-3.69-3.48-6.72a8.92,8.92,0,0,1,6.59-6.87C109.88,82.87,112.61,82.9,113.9,85.52Z"/><path d="M86.1,68.32c-.08,6.7-3.85,11-9.73,11a11.6,11.6,0,0,1-11.5-11.81c0-5.77,3.81-9.61,9.4-9.51C82.88,58.17,86.19,61.06,86.1,68.32ZM82,67.44c.1-3.1-3.45-6.62-6.91-6.85-2.77-.19-6,3.15-6.18,6.37a7.71,7.71,0,0,0,7.18,7.91C79.79,74.94,81.84,72.36,82,67.44Z"/><path d="M55.07,66.34c2.29,6,5.16,11.71,4.91,18.37C55,80.19,52.89,74.05,50.32,68.14A53.36,53.36,0,0,1,42.5,69.9c-1.23.1-2.57-1.07-3.87-1.67.79-1.07,1.37-2.47,2.42-3.15,1.37-.89,3.14-1.13,4.66-1.81s2.8-1.51,4.21-2.28l11.26-.59.51,1Z"/><path d="M172.29,149.76c-36,8.33-72.57,10.92-109.46,9.45C99.51,158.23,136,154.62,172.29,149.76Z"/><path d="M66.45,116.49l13.74-4.24.67,1.29a11.54,11.54,0,0,1-2.12,2.54,91.55,91.55,0,0,1-9.14,5.63c-2.9,1.5-4.17,0-5.17-3-1.31-4-3.66-7.65-5.49-11.48a61,61,0,0,1-2.89-6.83c-.23-.68.49-1.67.78-2.53.92.37,2.26.48,2.68,1.16a34.94,34.94,0,0,1,2.92,6.07C63.85,108.82,65.11,112.64,66.45,116.49Z"/><path d="M143.41,74.92,137,79.7l4.53,7.1a8.52,8.52,0,0,1,1.51,2.42c.35,1.69,1,4.61.37,5-2.62,1.46-3.41-1.39-4.28-3C137.36,88,136,84.57,134.35,81a40.77,40.77,0,0,1-6.42,2.53c-1.12.24-2.49-.66-3.74-1,.56-1.08.88-2.43,1.73-3.18C128.3,77.21,139.17,74.31,143.41,74.92Z"/><path d="M85.68,91.84a8.72,8.72,0,0,1,1.56,1.79c2.17,4.53,4.42,9,6.26,13.7.49,1.24-.36,3-.6,4.53-1.29-.85-3.23-1.41-3.76-2.59-2.43-5.41-4.31-11-4.34-17Z"/><path d="M157.66,77.15c-1.39-1.63-2.86-2.6-2.78-3.4.35-3.42,3.49-3,5.8-3.45.74-.12,1.71,1.07,2.57,1.66Z"/><path d="M164.19,80.21c1.91,2.8,1.08,5-.77,6.64-.63.57-2.25,0-3.42,0,.12-1.06-.09-2.37.45-3.13A25.17,25.17,0,0,1,164.19,80.21Z"/><path d="M170.06,21.73H160l.11-1.77,10,1Z"/><path d="M97.46,25.91l-10.13.62-.13-1.36,10.08-.79Z"/><path d="M141.42,22.21l6.79-1.05.27,1.33L141.82,24Z"/><path d="M124.39,24.68l-7.26.71L117,24h7.29Z"/><path d="M72.25,28.15l-6.87.69-.09-1.3,6.95-.43Z"/></g></g></svg>